<svg xmlns="http://www.w3.org/2000/svg" viewBox="0 0 612 612">
  <path d="M375.6 69c-8.6 3.2-5.9 14.2-10.7 20.4-16.7 30.5-58.8 40.7-89.1 26-17-7.6-30.7-23-33.9-41.5-3.2-7.3-12.5-4.6-18.3-3.1-70.3 19.1-141.2 35.7-211.3 55.8-5.3 9.8 2.8 19.7 3.8 29.4 8.8 33.3 15.6 67.3 26.6 100 11.8 5.1 24.6.2 36.7 2h58.7c.5 93.8-.9 187.7.7 281.5 7.8 7.3 18.9 1.9 28.2 3.4 101-.3 202 .9 303.1-.7 7.5-6.9 2.5-17.5 3.8-26.2V258c31.2-1.1 62.7 1.6 93.9-1.3 7.5-9.2 5.9-22 10.3-32.6 8-31.5 17.7-62.5 23.4-94.5-7.6-8.9-20.5-6.8-30.4-11-64.9-16.5-129.6-34.7-194.9-49.8l-.6.2zm211.3 67.9c-9.4 35.8-18.8 71.5-28.2 107.3-31.9 1-64-1.6-95.9 1.3-6.5 9-1.4 20.2-3 30.1v253.7H151.5c-.5-93.8 1-187.7-.8-281.5-8.1-7.3-19.5-1.9-29.1-3.5H53.2c-9.3-35.8-18.7-71.6-28.1-107.4 68.2-17.6 136.5-35.5 204.6-52.9 12.9 40.7 62.7 62.4 102.2 48.4 23-7.3 42.7-25.4 50.3-48.5 68.2 17.7 136.4 35.3 204.6 53z"/>
  <path class="bg" d="M152.1 392.8c0-75.1-.4-138.7-.8-141.4-.5-3-1.8-5.5-3.5-6.3-1.8-1-17.3-1.3-48.4-1.2-25.2.1-45.8-.1-45.8-.5s-6.2-24.1-13.7-52.7c-7.5-28.6-13.2-52.5-12.6-53.1.6-.6 42.2-11.6 92.5-24.6 50.3-12.9 95.5-24.7 100.4-26 4.9-1.4 9-2.3 9.1-2.2 0 .2 1.9 4.1 4.2 8.9 13.4 28.1 50.4 47.2 82.4 42.8 28.9-4 52.9-20.9 64.1-45.1l3.1-6.7 34 8.8c18.7 4.8 64 16.5 100.8 26 36.7 9.5 67.1 17.6 67.6 18 .4.4-5.5 24.4-13.1 53.3l-13.9 52.5-47.6.6c-45.3.6-47.7.8-49.5 3.2-1.6 2.1-1.8 23.7-1.8 142.3v139.8H152.4V392.7z"/>
  <path class="color1" d="M151.798 257.576h307.717v55.636H151.798z"/>
</svg>
