<svg xmlns="http://www.w3.org/2000/svg" id="svg3012" viewBox="0 0 64 64">
  <g id="layer1">
    <path id="path3020" stroke="none" fill="#fff" opacity=".4" d="M10.9 60.73c14.33 4.67 31.35 3.78 41.35.15-.96-11.76-.93-22.9-.72-35.08.66.92.92 2.12.9 3.17 5.43.42 7.8-.07 11.56-1.7-1.05-4.73-2.22-12.15-3.3-16.15-.48-1.8-1.26-2.6-2.05-3.4-.92-.9-2-1.8-3.06-2.25C49.43 2.97 46.9 2.2 40.67.93l-17.44.37C16.8 2.5 14.86 3.17 8.76 5c-2.1 1.1-2.3 1.24-3.52 2.6C1.98 11.8 2.44 19.7.56 26.3c3.65 2.26 6.5 2.45 11.1 2.65.35-1 .55-2.27 1.23-3.47.95 17.8-.25 19.37-2 35.23z" stroke-linejoin="round"/>
    <path id="path3020" stroke="#fff" stroke-width=".57" fill="none" d="M10.9 60.73c14.33 4.67 31.35 3.78 41.35.15-.96-11.76-.93-22.9-.72-35.08.66.92.92 2.12.9 3.17 5.43.42 7.8-.07 11.56-1.7-1.05-4.73-2.22-12.15-3.3-16.15-.48-1.8-1.26-2.6-2.05-3.4-.92-.9-2-1.8-3.06-2.25C49.43 2.97 46.9 2.2 40.67.93l-17.44.37C16.8 2.5 14.86 3.17 8.76 5c-2.1 1.1-2.3 1.24-3.52 2.6C1.98 11.8 2.44 19.7.56 26.3c3.65 2.26 6.5 2.45 11.1 2.65.35-1 .55-2.27 1.23-3.47.95 17.8-.25 19.37-2 35.23z" stroke-linejoin="round"/>
  </g>
</svg>