<svg xmlns="http://www.w3.org/2000/svg" id="svg3012" viewBox="0 0 64 64">
  <path id="path3020" fill="#fff" stroke="#000" stroke-width=".57" d="M10.9 60.73c14.33 4.67 31.35 3.78 41.35.15-.96-11.76-.93-22.9-.72-35.08.66.92.92 2.12.9 3.17 5.43.42 7.8-.07 11.56-1.7-1.06-4.73-2.23-12.15-3.3-16.15-.5-1.8-1.27-2.6-2.06-3.4-.92-.9-2-1.8-3.06-2.25-6.15-2.5-8.68-3.27-14.9-4.54l-17.45.37C16.8 2.5 14.86 3.17 8.76 5c-2.1 1.1-2.3 1.24-3.52 2.6-3.26 4.2-2.8 12.1-4.68 18.7 3.65 2.26 6.5 2.45 11.1 2.65.35-1 .55-2.27 1.23-3.47.94 17.8-.26 19.37-2 35.23z" stroke-linejoin="round"/>
  <g id="g4318" fill="#fff">
    <path id="path3766" d="M25.13 2.08l13.5.1c-.86 3.92-4.72 6.3-6.94 7.5-2.83-1.27-5.56-4.47-6.6-7.6z" opacity=".4"/>
    <path id="path3028" stroke="#000" stroke-width=".57" d="M51.18 1l-18.7.14-2.64 1.7c.72 3.8 1.66 5.37 3.76 7.93 3.4 3.37 3.67 4.1 7.8 6.3 4.62-2.12 5.3-2.43 8.6-6.24C51.8 8.17 52.87 7 53.52 2.1l-2.35-1.08zm-1.9 3.8C48 9 44.98 11.5 41.4 13c-3.4-1.43-6.45-3.52-7.58-8.15l15.46-.05z" transform="matrix(.79728 0 0 .68734 -1.35 -.506)" stroke-linejoin="round"/>
  </g>
  <g id="text5755" style="text-align:start;line-height:125%;-inkscape-font-specification:Sitka Text" font-size="61.19" letter-spacing="0" word-spacing="0" font-family="Sitka Text">
    <path id="path5760" d="M27.27 34.14c1.37-.07 2.8-.25 4.3-.52s2.9-.68 4.14-1.23c1.26-.56 2.3-1.3 3.1-2.2.8-.9 1.2-2 1.2-3.35 0-.94-.13-1.76-.4-2.47-.25-.7-.65-1.3-1.18-1.8-.54-.5-1.23-.86-2.1-1.1-.85-.24-1.88-.36-3.08-.36-1.1 0-2.24.13-3.38.38-1.14.26-2.23.57-3.28.94-1.04.37-2 .76-2.9 1.15-.87.38-1.6.72-2.16 1h-1.27l-.2-4.48c.48-.13 1.1-.32 1.8-.56.74-.24 1.6-.48 2.54-.7.95-.23 2-.43 3.18-.6 1.16-.16 2.4-.24 3.74-.24 1.96 0 3.83.2 5.6.63 1.8.42 3.37 1.03 4.75 1.82 1.37.8 2.46 1.77 3.28 2.94.8 1.17 1.22 2.48 1.22 3.95 0 1.46-.37 2.77-1.13 3.9-.75 1.15-1.77 2.15-3.08 3-1.3.87-2.83 1.58-4.57 2.14-1.75.54-3.6.98-5.56 1.3l-.23 4.5h-4.33zm-2.78 14.6c0-.45.12-.9.38-1.32.27-.43.6-.8 1.05-1.1.43-.3.95-.55 1.55-.73.6-.18 1.25-.27 1.94-.27.68 0 1.3.1 1.9.26.6.17 1.14.4 1.6.72.45.3.8.67 1.06 1.1.25.42.37.87.37 1.33 0 .47-.12.9-.37 1.33-.25.4-.6.77-1.06 1.06-.46.3-1 .54-1.6.72-.6.18-1.22.27-1.9.27-.7 0-1.34-.1-1.94-.27-.6-.18-1.12-.42-1.55-.72-.44-.3-.78-.65-1.05-1.06-.26-.42-.4-.86-.4-1.33z"/>
  </g>
</svg>