<svg xmlns="http://www.w3.org/2000/svg" id="svg3012" viewBox="0 0 64 64">
  <path id="path3020" stroke="none" stroke-width=".57" d="M10.9 60.73c14.33 4.67 31.35 3.78 41.35.15-.96-11.76-.93-22.9-.72-35.08.66.92.92 2.12.9 3.17 5.43.42 7.8-.07 11.56-1.7-1.06-4.73-2.23-12.15-3.3-16.15-.5-1.8-1.27-2.6-2.06-3.4-.92-.9-2-1.8-3.06-2.25-6.15-2.5-8.68-3.27-14.9-4.54l-17.45.37C16.8 2.5 14.86 3.17 8.76 5c-2.1 1.1-2.3 1.24-3.52 2.6-3.26 4.2-2.8 12.1-4.68 18.7 3.65 2.26 6.5 2.45 11.1 2.65.35-1 .55-2.27 1.23-3.47.94 17.8-.26 19.37-2 35.23z" stroke-linejoin="round"/>
  <path id="path6075" fill="none" stroke-width="5.1" d="M2.98 27.4c1.45-2.8 1.4-12.94 4.2-18.32 1-1.53 10-4.56 18.3-5.28"/>
  <path id="path6077" fill="none" stroke-width="5.1" d="M61.42 28.2c-2.12-8.67-1.53-10.7-3.1-16.4-2.8-5.12-7.3-5.18-11.07-6.57-2.68-1-5.33-1.04-7.8-1.98"/>
  <path id="path3020" fill="none" stroke="#000" stroke-width=".57" d="M10.9 60.73c14.33 4.67 31.35 3.78 41.35.15-.96-11.76-.93-22.9-.72-35.08.66.92.92 2.12.9 3.17 5.43.42 7.8-.07 11.56-1.7-1.06-4.73-2.23-12.15-3.3-16.15-.5-1.8-1.27-2.6-2.06-3.4-.92-.9-2-1.8-3.06-2.25-6.15-2.5-8.68-3.27-14.9-4.54l-17.45.37C16.8 2.5 14.86 3.17 8.76 5c-2.1 1.1-2.3 1.24-3.52 2.6-3.26 4.2-2.8 12.1-4.68 18.7 3.65 2.26 6.5 2.45 11.1 2.65.35-1 .55-2.27 1.23-3.47.94 17.8-.26 19.37-2 35.23z" stroke-linejoin="round"/>
  <g id="g4318" fill="#fff" stroke="#000">
    <path id="path3766" d="M25.13 2.08l13.5.1c-.86 3.92-4.72 6.3-6.94 7.5-2.83-1.27-5.56-4.47-6.6-7.6z" opacity=".4"/>
    <path id="path3028" stroke-width=".57" d="M51.18 1l-18.7.14-2.64 1.7c.72 3.8 1.66 5.37 3.76 7.93 3.4 3.37 3.67 4.1 7.8 6.3 4.62-2.12 5.3-2.43 8.6-6.24C51.8 8.17 52.87 7 53.52 2.1l-2.35-1.08zm-1.9 3.8C48 9 44.98 11.5 41.4 13c-3.4-1.43-6.45-3.52-7.58-8.15l15.46-.05z" transform="matrix(.79728 0 0 .68734 -1.35 -.506)" stroke-linejoin="round"/>
  </g>
</svg>